# xmcd CD database file
#
# Track frame offsets:
#	150
#	25443
#	51774
#	69230
#	111536
#	130259
#	153798
#	185507
#	223648
#	247814
#
# Disc length: 3929 seconds
#
# Revision: 0
# Processed by: cddbd v1.5.2PL0 Copyright (c) Steve Scherf et al.
# Submitted via: CDex 1.70
#
DISCID=880f570a
DTITLE=THE JEFF HEALEY BAND - The Cotton Club Atlanta 1988
DYEAR=1988
DGENRE=Blues
TTITLE0=Instrumental
TTITLE1=Farther On Up The Road
TTITLE2=My Little Girl
TTITLE3=Blue Jeans Blues
TTITLE4=Confidence Man
TTITLE5=I Need To Be Loved
TTITLE6=White Room
TTITLE7=See The Light
TTITLE8=Hideaway
TTITLE9=All Along The Watchtower
EXTD=YEAR: 1988
EXTT0=
EXTT1=
EXTT2=
EXTT3=
EXTT4=
EXTT5=
EXTT6=
EXTT7=
EXTT8=
EXTT9=
PLAYORDER=
